<svg xmlns="http://www.w3.org/2000/svg" width="1600" height="1000" viewBox="0 0 1600 1000">
  <defs>
    <linearGradient id="g" x1="0" x2="1" y1="0" y2="1">
      <stop offset="0" stop-color="#ffffff"/>
      <stop offset="1" stop-color="#f5f7fb"/>
    </linearGradient>
  </defs>
  <rect width="1600" height="1000" fill="url(#g)"/>
  <g opacity="0.08">
    <circle cx="260" cy="160" r="140" fill="#111"/>
    <circle cx="1400" cy="280" r="120" fill="#111"/>
    <circle cx="380" cy="820" r="100" fill="#111"/>
    <circle cx="1200" cy="760" r="160" fill="#111"/>
  </g>
  <g transform="translate(140,140)">
    <rect x="0" y="0" width="620" height="360" rx="24" fill="#fff" stroke="#e6e8f0"/>
    <rect x="30" y="30" width="560" height="70" rx="12" fill="#0b0b0c"/>
    <rect x="30" y="120" width="420" height="16" rx="8" fill="#d7dae3"/>
    <rect x="30" y="150" width="460" height="16" rx="8" fill="#e4e7ee"/>
    <rect x="30" y="180" width="380" height="16" rx="8" fill="#eef0f6"/>
    <rect x="30" y="230" width="150" height="36" rx="18" fill="#0b0b0c"/>
    <rect x="190" y="230" width="150" height="36" rx="18" fill="#f1f3f8"/>
  </g>
  <g transform="translate(880,180)">
    <rect x="0" y="0" width="580" height="640" rx="28" fill="#ffffff" stroke="#e6e8f0"/>
    <rect x="40" y="40" width="500" height="360" rx="18" fill="#f1f3f8"/>
    <rect x="40" y="430" width="340" height="16" rx="8" fill="#d7dae3"/>
    <rect x="40" y="462" width="420" height="16" rx="8" fill="#e4e7ee"/>
    <rect x="40" y="494" width="280" height="16" rx="8" fill="#eef0f6"/>
  </g>
  <text x="800" y="940" text-anchor="middle" font-family="Inter, system-ui, -apple-system, Segoe UI, Roboto, Helvetica, Arial" font-size="28" fill="#9aa2b1">
    Pragya Financial Services — placeholder visual
  </text>
</svg>
